<mxfile host="app.diagrams.net" modified="2024-06-21T14:19:33.207Z" agent="Mozilla/5.0 (Macintosh; Intel Mac OS X 10_15_7) AppleWebKit/605.1.15 (KHTML, like Gecko) Version/17.4 Safari/605.1.15" version="24.6.1" etag="OMpcAU112TbF4NiTlUO1" type="github">
  <diagram name="Page-1" id="XuFgTRuwKFsQZAZ5k6Fc">
    <mxGraphModel>
      <root>
        <mxCell id="0" />
        <mxCell id="1" parent="0" />
      </root>
    </mxGraphModel>
  </diagram>
</mxfile>
